<?xml version="1.0" encoding="UTF-8" standalone="no"?>
<svg width="17px" height="21px" viewBox="0 0 17 21" version="1.1" xmlns="http://www.w3.org/2000/svg" xmlns:xlink="http://www.w3.org/1999/xlink">
    <!-- Generator: Sketch 43.2 (39069) - http://www.bohemiancoding.com/sketch -->
    <title>control-play - simple-line-icons</title>
    <desc>Created with Sketch.</desc>
    <defs></defs>
    <g id="Page-1" stroke="none" stroke-width="1" fill="none" fill-rule="evenodd">
        <path id="play" class="svg-play" d="M1.33203125,1.51953125 L1.3125,18.9804688 L15.6875,10.25 L1.33203125,1.51953125 Z M1.33203125,0.26953125 C1.43619844,0.26953125 1.54687441,0.285807129 1.6640625,0.318359375 C1.78125059,0.350911621 1.88541621,0.399739258 1.9765625,0.46484375 L16.3515625,9.1953125 C16.5338551,9.29947969 16.6770828,9.4459626 16.78125,9.63476562 C16.8854172,9.82356865 16.9375,10.0286447 16.9375,10.25 C16.9375,10.4713553 16.8854172,10.6764313 16.78125,10.8652344 C16.6770828,11.0540374 16.5338551,11.2005203 16.3515625,11.3046875 L1.95703125,20.0351562 C1.86588496,20.1002607 1.76171934,20.1490884 1.64453125,20.1816406 C1.52734316,20.2141929 1.41666719,20.2304688 1.3125,20.2304688 C1.20833281,20.2304688 1.10416719,20.217448 1,20.1914062 C0.895832812,20.1653645 0.798177539,20.1263023 0.70703125,20.0742188 C0.498696875,19.9570307 0.339193262,19.8007822 0.228515625,19.6054688 C0.117837988,19.4101553 0.0625,19.201824 0.0625,18.9804688 L0.08203125,1.51953125 C0.08203125,1.29817598 0.137369238,1.08984473 0.248046875,0.89453125 C0.358724512,0.699217773 0.518228125,0.542969336 0.7265625,0.42578125 C0.817708789,0.373697656 0.915364062,0.334635547 1.01953125,0.30859375 C1.12369844,0.282551953 1.22786406,0.26953125 1.33203125,0.26953125 Z" id="control-play---simple-line-icons" 
        fill="#FFFFFF"></path>
    </g>
</svg>