<?xml version="1.0" encoding="UTF-8"?>
<svg width="176px" height="173px" viewBox="0 0 176 173" version="1.1" xmlns="http://www.w3.org/2000/svg" xmlns:xlink="http://www.w3.org/1999/xlink">
    <!-- Generator: Sketch 43.2 (39069) - http://www.bohemiancoding.com/sketch -->
    <title>ico_footer</title>
    <desc>Created with Sketch.</desc>
    <defs>
        <rect id="path-1" x="0" y="0" width="180" height="180"></rect>
    </defs>
    <g id="Symbols" stroke="none" stroke-width="1" fill="none" fill-rule="evenodd">
        <g id="ico_footer-copy" transform="translate(0.000000, -7.000000)">
            <mask id="mask-2" fill="white">
                <use xlink:href="#path-1"></use>
            </mask>
            <g id="Mask" transform="translate(90.000000, 90.000000) scale(1, -1) translate(-90.000000, -90.000000) "></g>
            <path d="M145.929074,63.3955318 C145.626572,63.7883821 145.297157,64.2016821 144.941905,64.6365081 C144.576965,65.0820972 144.184035,65.5502886 143.767422,66.0357008 C143.488604,66.360744 143.163495,66.7202289 142.865299,67.0592641 L135.754887,58.3821168 C132.525328,54.2771007 128.976042,50.3238432 125.059664,46.5395651 C119.336886,41.0202881 112.822865,35.9681262 105.504685,31.3895372 C98.1875809,26.8077193 90.186887,22.9911522 81.5219805,19.944141 C80.6941369,16.2427382 78.8608239,13.4432765 76.0198886,11.5500612 C73.1789533,9.65576953 69.8309772,8.37927527 65.9479709,7.7162732 C62.0692707,7.05865263 58.0290925,6.85307894 53.8166711,7.10278102 C49.6117854,7.35894091 45.720167,7.77439351 42.1461218,8.36313074 C33.0592195,9.75048411 24.6785142,12.0602283 16.9986231,15.2826767 C9.32734417,18.508354 2.43438895,22.4594589 -3.66840086,27.1370677 C-10.5581265,32.3356067 -16.4294646,38.0346262 -21.2770325,44.2298209 C-26.12783,50.4303971 -30.0678919,56.9979923 -33.0939886,63.930454 C-36.1136261,70.8682971 -38.3247975,77.9643566 -39.7188904,85.2186326 C-41.1076007,92.4815189 -41.8697766,99.7250319 -41.9935764,106.953477 C-42.0667797,113.89993 -41.5145252,121.063797 -40.3260475,128.451534 C-39.1354168,135.838195 -37.1632328,143.134447 -34.4288729,150.333831 C-31.6826713,157.531063 -28.0494176,164.588376 -23.523729,171.491778 C-18.9937344,178.397332 -13.4819539,184.893891 -6.99269349,190.978226 C1.57747932,199.097849 11.8550123,205.873171 23.8377523,211.299886 C35.8247985,216.72983 48.7764062,220.110495 62.6828868,221.435422 C73.8625433,222.551548 84.0378068,222.01232 93.2215959,219.822046 C102.415074,217.635 110.629995,214.424391 117.86313,210.191295 C125.105954,205.966809 131.380987,200.944784 136.68177,195.13921 C141.987935,189.33579 146.234805,183.244996 149.42238,176.864677 C155.829825,163.963045 159.464155,150.329526 160.354437,135.97058 C160.462089,134.192529 160.54821,132.409097 160.57297,130.606291 C160.612802,127.925222 160.519144,125.258146 160.363049,122.594298 C153.189122,133.495086 145.15075,143.781304 136.223173,153.447573 C127.218086,163.195641 117.701652,171.697351 107.650189,178.960238 C101.304105,183.551742 94.9009665,187.06264 88.4440017,189.512303 C85.4211346,191.030965 82.237866,192.353741 78.7058051,193.2503 C73.6655402,194.535405 68.0148886,194.761428 61.7398556,193.913302 C54.7026468,193.180341 48.5428014,191.446418 43.0245618,188.93971 C41.7348913,188.355278 40.4495268,187.76977 39.2319831,187.096005 C32.8245382,183.534521 27.2610848,179.340172 22.5470053,174.512957 C17.8340023,169.68359 13.9596082,164.520569 10.9162872,159.026047 C7.88588438,153.529372 5.46479172,148.211364 3.66915697,143.061258 C1.16194274,135.995335 -0.501280095,128.707694 -1.32804717,121.201563 C-2.14512558,113.697585 -2.13758994,106.290474 -1.30113418,98.9673152 C-0.465754947,91.6495374 1.29435466,84.5071969 3.97811811,77.548904 C6.65972852,70.5841534 10.4404655,64.055305 15.322482,57.9451382 C20.9193076,50.6693362 27.5011487,45.120999 35.0604695,41.2904399 C42.625173,37.4588046 52.0059651,34.7906517 63.2006928,33.2784473 C74.0390925,37.3221142 83.1033878,42.5970707 90.3881962,49.1011641 C97.6730045,55.610639 103.622929,62.6884014 108.242274,70.3409091 C110.138025,73.48694 111.772182,76.6846335 113.250244,79.9124634 C113.272851,79.9006241 116.203137,85.4252826 118.640377,90.8649132 C107.848268,100.451536 96.2681464,109.611943 87.8163908,114.108733 C85.0109806,115.595106 82.5522098,116.585304 80.454073,116.890974 L79.7328048,116.993222 L79.3700177,116.362509 C79.3689412,116.360357 79.0104602,115.736101 78.3419415,114.612442 C77.6734228,113.487706 76.6991725,111.867872 75.4740932,109.892858 C73.0260875,105.942829 69.5812247,100.568853 65.6024081,94.8838252 C57.6673819,83.5191516 47.4942713,70.8887468 39.1770806,66.0270904 C36.811967,64.6332792 34.6320147,63.8927834 32.782554,63.8970886 C31.881507,63.8981649 31.05474,64.0649917 30.2731867,64.4137136 C29.766146,64.5913034 29.5422299,64.6795602 29.2687939,64.8097928 C28.724075,65.0681052 27.9877355,65.4921683 27.2589317,66.1293391 C26.8132526,66.5232656 26.3740326,67.0022201 25.9714143,67.5640497 C22.8742673,71.9392177 24.1241066,77.9783486 25.4729857,81.9682003 C25.5558777,82.2135972 25.6419992,82.4611467 25.7356565,82.7140777 C26.3621909,84.4436951 26.9338228,85.6437719 27.0716173,85.9236104 C27.9500573,87.9115404 28.8726347,90.1739273 29.8296606,92.6504984 C29.8296606,92.6472695 49.6892949,140.869907 53.3785276,151.09693 C57.0160875,161.180804 59.0733165,168.585762 70.1237906,170.608134 C70.7180294,170.663025 71.3510229,170.702848 72.0593729,170.701772 C79.9287314,170.709306 94.4434456,166.922875 112.446083,153.076249 C129.169816,140.221974 148.93364,118.676559 169.278785,83.5191516 C169.518848,83.092936 169.784749,82.6344313 170.084021,82.1317983 C170.319779,81.7206509 170.556613,81.2847485 170.792371,80.8703722 C171.077649,80.3645103 171.317713,79.8801743 171.566389,79.3915332 C181.188321,61.1686629 169.630807,54.3987228 169.630807,54.3987228 C160.487925,48.7825786 150.284672,58.4520764 145.929074,63.3955318 Z" id="Fill-3-Copy-11" fill="#6D1746" mask="url(#mask-2)"></path>
        </g>
    </g>
</svg>